<svg xmlns="http://www.w3.org/2000/svg" width="510.34" height="497.619"><defs><filter height="1.2" width="1.2" y="-.1" x="-.1" id="a" color-interpolation-filters="sRGB"><feTurbulence seed="50" type="fractalNoise" baseFrequency="1" numOctaves="3" result="result1"/><feColorMatrix type="luminanceToAlpha" in="SourceGraphic" result="result0"/><feColorMatrix result="result2" values="1 0 0 0 0 0 1 0 0 0 0 0 1 0 0 0 0 0 0.5 0"/><feComposite result="result3" in="result1" in2="result2"/><feColorMatrix result="result91" values="1 0 0 0 0 0 1 0 0 0 0 0 1 0 0 0 0 0 5 -3.2"/><feComposite in2="result91" operator="arithmetic" k1="1.5" result="result93"/><feComposite in2="result93" in="SourceGraphic" operator="out" result="result4"/><feComposite in2="result4" operator="arithmetic" k2=".5" k1="1"/><feDisplacementMap scale="15" xChannelSelector="R" in2="result1" result="result92"/></filter></defs><path d="M429.503 771.687c-39.914 19.424-88.677 25.743-128.69 16.675-32.95-7.469-67.217-26.071-93.602-50.817-37.099-34.794-64.32-95.718-67.044-150.057-5.097-101.655 73.36-191.141 181.892-207.46 87.793-13.2 163.297 31.665 192.696 114.502 6.736 18.98 12.913 48.708 12.16 58.53-.95 12.41-7.226 32.663-13.685 44.163-8.576 15.27-25.401 26.93-43.447 30.11-16.508 2.908-32.622 1.603-41.251-3.341-3.744-2.145-7.322-3.532-7.951-3.082-.63.45-2.031 5.06-3.115 10.246-5.966 28.556-30.098 59.906-55.711 72.374-32.247 15.697-65.18 10.343-89.048-14.475-22.563-23.463-36.774-70.566-34.33-113.792 2.886-51.025 28.566-90.643 68.215-105.235 46.944-17.277 79.98 4.177 108.635 70.549 11.755 27.227 22.255 43.01 30.946 46.515 8.028 3.237 23.658.253 28.705-5.48 8.317-9.448 12.606-25.575 10.628-39.957-4.508-32.778-24.895-73.047-46.543-91.932-44.187-38.549-112.333-42.041-173.174-8.875-50.512 27.536-83.332 77.358-85.224 129.376-1.612 44.341 16.388 96.1 44.21 127.12 26.325 29.352 53.74 45.002 90.614 51.728 21.41 3.905 28.468 4.12 46.187 1.409 31.47-4.816 47.216-11.238 75.91-30.958 19.722-13.555 26.162-18.99 36.847-31.089 22.66-25.661 34.847-46.174 48.687-81.95 3.773-9.751 8.579-18.925 10.68-20.386 6.05-4.206 14.69-4.968 20.646-1.82 13.26 7.006 14.17 17.022 3.92 43.152-25.323 64.56-71.65 116.461-128.763 144.257zm-63.41-124.257c7.616-9.911 14.526-30.549 17.833-53.26 2.275-15.623 1.974-18.858-2.868-30.849-20.012-49.555-34.14-63.396-57.634-56.467-14.198 4.187-25.05 13.594-33.704 29.217-26.812 48.402-1.865 139.374 37.37 136.277 14.7-1.16 26.576-8.748 39.002-24.918z" fill="#ededed" filter="url(#a)" transform="translate(-97.404 -336.28)"/></svg>